<?xml version="1.0" encoding="utf-8"?>
<svg width="600" height="530" version="1.1" xmlns="http://www.w3.org/2000/svg">
<style type="text/css">
	.st0{fill:#333333;}
</style>
<path class="st0" d="M153.3,67.7c59.4,44.6,123.3,135,146.7,183.5c23.5-48.5,87.3-138.9,146.7-183.5C489.6,35.5,559,10.6,559,89.8
	c0,15.8-9.1,132.9-14.4,151.9c-18.5,66.1-85.9,82.9-145.8,72.7c104.8,17.8,131.4,76.9,73.9,135.9
	c-109.3,112.2-157.1-28.1-169.4-64.1c-2.2-6.6-3.3-9.7-3.3-7.1c0-2.6-1.1,0.5-3.3,7.1c-12.2,36-60,176.3-169.4,64.1
	c-57.6-59.1-30.9-118.1,73.9-135.9c-59.9,10.2-127.3-6.7-145.8-72.7C50.1,222.7,41,105.6,41,89.8C41,10.6,110.4,35.5,153.3,67.7
	L153.3,67.7z"/>
</svg>
