<?xml version="1.0" encoding="utf-8"?>
<svg version="1.1" viewBox="0 0 128 128" xmlns="http://www.w3.org/2000/svg"><path d="M39,103.8c0.7,11-12.8,19.2-22,13.7c-9.2-4.6-11-19.2-2.4-24.7c7-5.6,18.3-3.6,22.9,4.8c1.2,2.1,1.7,4.6,1.7,7
	L39,103.8z M79.3,112.9c-0.1,7-9,5.1-13.7,5.7c-8.1,0-7.4-9.1-8.7-14.6c-5.6-19.2-23.8-33.9-43.9-34.8c-5.9-2.4-2.7-10.1-3.8-14.6
	c0.9-7.3,9.2-5.7,14.6-4.3c26.5,5.4,49.4,28.4,54.9,54.9c0.5,2.7,0.9,5.4,1.1,8.1L79.3,112.9z M119.6,113.1
	c-0.2,6.9-8.8,4.9-13.7,5.4c-7.9,0-7-5.6-8.7-13.7c-4.9-31.1-27.5-59.5-57.7-69.6c-8.6-3.2-17.4-4.6-26.5-5.5
	c-3.8-1.1-3-9.2-3.2-13.7c-0.2-6.6,6.2-6.8,11.9-6c33,3.5,64.1,22.9,81.5,52.2c10.1,15.6,15.6,33.9,16.5,52.2V113.1z" fill="#333"/></svg>
